<svg width="21" height="16" viewBox="0 0 21 16" fill="none" xmlns="http://www.w3.org/2000/svg">
<rect x="4" y="15.3997" width="1.59997" height="1.59997" transform="rotate(-90 4 15.3997)" fill="#F48D17"/>
<rect x="5.59961" y="13.7998" width="1.59997" height="1.59997" transform="rotate(-90 5.59961 13.7998)" fill="#F48D17"/>
<rect x="7.2002" y="12.1997" width="1.59997" height="1.59997" transform="rotate(-90 7.2002 12.1997)" fill="#F48D17"/>
<rect x="8.7998" y="10.5999" width="1.59997" height="1.59997" transform="rotate(-90 8.7998 10.5999)" fill="#F48D17"/>
<rect x="10.4004" y="8.99976" width="1.59997" height="1.59997" transform="rotate(-90 10.4004 8.99976)" fill="#F48D17"/>
<rect x="8.7998" y="7.3999" width="1.59997" height="1.59997" transform="rotate(-90 8.7998 7.3999)" fill="#F48D17"/>
<rect x="7.2002" y="5.7998" width="1.59997" height="1.59997" transform="rotate(-90 7.2002 5.7998)" fill="#F48D17"/>
<rect x="5.59961" y="4.19995" width="1.59997" height="1.59997" transform="rotate(-90 5.59961 4.19995)" fill="#F48D17"/>
<rect x="4" y="2.59985" width="1.59997" height="1.59997" transform="rotate(-90 4 2.59985)" fill="#F48D17"/>
<rect x="9" y="15.3997" width="1.59997" height="1.59997" transform="rotate(-90 9 15.3997)" fill="#F48D17"/>
<rect x="10.5996" y="13.7998" width="1.59997" height="1.59997" transform="rotate(-90 10.5996 13.7998)" fill="#F48D17"/>
<rect x="12.2002" y="12.1997" width="1.59997" height="1.59997" transform="rotate(-90 12.2002 12.1997)" fill="#F48D17"/>
<rect x="13.7998" y="10.5999" width="1.59997" height="1.59997" transform="rotate(-90 13.7998 10.5999)" fill="#F48D17"/>
<rect x="15.4004" y="8.99976" width="1.59997" height="1.59997" transform="rotate(-90 15.4004 8.99976)" fill="#F48D17"/>
<rect x="13.7998" y="7.3999" width="1.59997" height="1.59997" transform="rotate(-90 13.7998 7.3999)" fill="#F48D17"/>
<rect x="12.2002" y="5.7998" width="1.59997" height="1.59997" transform="rotate(-90 12.2002 5.7998)" fill="#F48D17"/>
<rect x="10.5996" y="4.19995" width="1.59997" height="1.59997" transform="rotate(-90 10.5996 4.19995)" fill="#F48D17"/>
<rect x="9" y="2.59985" width="1.59997" height="1.59997" transform="rotate(-90 9 2.59985)" fill="#F48D17"/>
</svg>
